<?xml version="1.0" standalone="no"?><!DOCTYPE svg PUBLIC "-//W3C//DTD SVG 1.1//EN" "http://www.w3.org/Graphics/SVG/1.1/DTD/svg11.dtd"><svg t="1542271070748" class="icon" style="" viewBox="0 0 1024 1024" version="1.1" xmlns="http://www.w3.org/2000/svg" p-id="1126" xmlns:xlink="http://www.w3.org/1999/xlink" width="200" height="200"><defs><style type="text/css"></style></defs><path d="M602 662c-33.1 0-60-26.9-60-60s26.9-60 60-60 60 26.9 60 60-26.9 60-60 60z m0 300c-33.1 0-60-26.9-60-60s26.9-60 60-60 60 26.9 60 60-26.9 60-60 60z m300 0c-33.1 0-60-26.9-60-60V752c0-33.1 26.9-60 60-60s60 26.9 60 60v150c0 33.1-26.9 60-60 60z" fill="" p-id="1127"></path><path d="M962 902c0 33.1-26.9 60-60 60H752c-33.1 0-60-26.9-60-60s26.9-60 60-60h150c33.1 0 60 26.9 60 60z m-60-240c-33.1 0-60-26.9-60-60s26.9-60 60-60 60 26.9 60 60-26.9 60-60 60zM722 812c-33.1 0-60-26.9-60-60v-60c0-33.1 26.9-60 60-60s60 26.9 60 60v60c0 33.1-26.9 60-60 60zM272 62C156 62 62 156 62 272s94 210 210 210 210-94 210-210S388 62 272 62z m0 330c-66.3 0-120-53.7-120-120s53.7-120 120-120 120 53.7 120 120-53.7 120-120 120z" fill="" p-id="1128"></path><path d="M272 272m-60 0a60 60 0 1 0 120 0 60 60 0 1 0-120 0Z" fill="" p-id="1129"></path><path d="M752 62c-116 0-210 94-210 210s94 210 210 210 210-94 210-210S868 62 752 62z m0 330c-66.3 0-120-53.7-120-120s53.7-120 120-120 120 53.7 120 120-53.7 120-120 120z" fill="" p-id="1130"></path><path d="M752 272m-60 0a60 60 0 1 0 120 0 60 60 0 1 0-120 0Z" fill="" p-id="1131"></path><path d="M272 542c-116 0-210 94-210 210s94 210 210 210 210-94 210-210-94-210-210-210z m0 330c-66.3 0-120-53.7-120-120s53.7-120 120-120 120 53.7 120 120-53.7 120-120 120z" fill="" p-id="1132"></path><path d="M272 752m-60 0a60 60 0 1 0 120 0 60 60 0 1 0-120 0Z" fill="" p-id="1133"></path></svg>