<?xml version="1.0" standalone="no"?><!DOCTYPE svg PUBLIC "-//W3C//DTD SVG 1.1//EN" "http://www.w3.org/Graphics/SVG/1.1/DTD/svg11.dtd"><svg t="1542340215905" class="icon" style="" viewBox="0 0 1024 1024" version="1.1" xmlns="http://www.w3.org/2000/svg" p-id="1319" xmlns:xlink="http://www.w3.org/1999/xlink" width="200" height="200"><defs><style type="text/css"></style></defs><path d="M510.1568 128.53248l415.1296 417.792c17.89952 17.98144 46.94016 17.98144 64.79872 0a46.2848 46.2848 0 0 0 0-65.20832L512 0 33.91488 481.11616a46.2848 46.2848 0 0 0 0 65.16736c17.85856 18.0224 46.8992 18.0224 64.79872 0L510.1568 128.53248z m0.73728 461.824l414.39232 416.9728c17.89952 18.0224 46.94016 18.0224 64.79872 0a46.2848 46.2848 0 0 0 0-65.16736L512 461.04576 33.91488 942.16192a46.2848 46.2848 0 0 0 0 65.16736c17.85856 18.0224 46.8992 18.0224 64.79872 0l412.18048-416.9728z" fill="#24B69B" p-id="1320"></path></svg>